:SAMPLES-PER-SECOND 30
:FULLY-SPECIFIED
:DEGREES
156
root  -3.21956 40.8875 -0.695428 2.68615 -80.7971 -1.45556
RightUpLeg  2.87304 -1.36341 0.526601
RightLeg  -2.24896 -26.9301 2.23497
RightFoot  -0.881905 -0.066151 0.656381
RightToes  -3.13006e-008 1.75238e-005 3.56266e-009
Spine  2.32335 -0.132449 -5.93746
Spine1  11.5212 -0.848522 3.04644
HEad  -20.1628 -8.05754 10.3075
LeftShoulder1  3.07833 -7.14591 -22.6236
LeftArm  -34.6629 -25.2527 -44.8461
LeftForeArm  90.349 -79.8966 -59.135
LeftHand  -0.458047 -6.87068 4.68376
RightShoulder  3.7421 7.929 26.7077
RightArm  -34.6908 7.40095 38.0359
RightForeArm  128.624 79.8592 112.859
RightHand  -1.06448 7.05464 -10.234
LeftUpLeg  -0.789893 1.38131 3.74721
LeftLeg  1.36596 4.2545 -0.0148991
LeftFoot  -0.991629 0.328217 -3.55875
LeftToes  4.78685e-008 1.46778e-008 1.34523e-009
157
root  -3.4644 40.9011 -0.438858 2.04735 -81.2843 -1.10097
RightUpLeg  3.75721 -1.52569 0.141045
RightLeg  -2.58497 -26.2622 2.17633
RightFoot  -0.876846 -0.099159 1.01745
RightToes  -3.13006e-008 1.75238e-005 3.56266e-009
Spine  1.39926 -0.519085 -6.12604
Spine1  9.80968 -1.48036 4.19757
HEad  -19.6884 -7.03297 10.2927
LeftShoulder1  2.91048 -6.70864 -22.1795
LeftArm  -36.5233 -27.7384 -43.2946
LeftForeArm  78.4586 -78.5583 -49.8821
LeftHand  -0.44883 -5.93743 4.92829
RightShoulder  3.48189 7.57569 25.3585
RightArm  -36.935 9.0103 36.5432
RightForeArm  126.904 79.8004 112.642
RightHand  -0.928719 6.96845 -9.04622
LeftUpLeg  0.366081 1.50564 3.45738
LeftLeg  0.779918 4.64944 -0.284299
LeftFoot  -1.26483 0.296512 -3.27697
LeftToes  4.78685e-008 1.46778e-008 1.34523e-009
158
root  -3.69017 40.9104 -0.203166 2.1575 -81.8491 -1.24959
RightUpLeg  4.26578 -1.7225 -0.236277
RightLeg  -2.77983 -25.4278 2.19521
RightFoot  -0.872797 -0.140267 1.46509
RightToes  -3.13006e-008 1.75238e-005 3.56266e-009
Spine  0.336503 -0.975541 -5.8982
Spine1  8.28505 -1.96309 4.62889
HEad  -18.7647 -6.44971 10.2036
LeftShoulder1  2.66796 -6.15563 -21.2611
LeftArm  -37.971 -29.7746 -42.6489
LeftForeArm  71.5811 -77.7174 -46.2832
LeftHand  -0.552361 -5.13194 6.40289
RightShoulder  3.3955 7.48367 24.8071
RightArm  -39.01 10.6631 34.8193
RightForeArm  126.711 79.69 113.453
RightHand  -0.977394 6.91256 -9.53758
LeftUpLeg  1.12782 1.66328 3.27368
LeftLeg  0.354556 5.04243 -0.562334
LeftFoot  -1.48755 0.258958 -2.90109
LeftToes  4.78685e-008 1.46778e-008 1.34523e-009
159
root  -3.8751 40.919 -0.00239214 2.42763 -82.3366 -1.50485
RightUpLeg  4.72622 -1.82123 -0.504998
RightLeg  -3.18284 -24.8346 2.25039
RightFoot  -0.732052 -0.176197 1.84258
RightToes  -3.13006e-008 1.75238e-005 3.56266e-009
Spine  -0.26243 -1.28621 -6.07749
Spine1  6.49708 -2.45001 5.79748
HEad  -17.4996 -6.43837 9.77879
LeftShoulder1  2.73056 -6.3992 -21.2045
LeftArm  -39.4534 -30.7454 -42.0069
LeftForeArm  67.9687 -77.5493 -46.6639
LeftHand  -0.59611 -4.39936 7.34098
RightShoulder  3.27204 7.32006 24.0952
RightArm  -41.0373 12.0584 33.7643
RightForeArm  127.734 79.3807 116.179
RightHand  -1.0264 7.13232 -9.83048
LeftUpLeg  1.65686 1.60597 3.02033
LeftLeg  0.0788021 5.58284 -0.625735
LeftFoot  -1.64368 0.226321 -2.55122
LeftToes  4.78685e-008 1.46778e-008 1.34523e-009
160
root  -4.07323 40.9219 0.190564 2.08394 -83.023 -1.26586
RightUpLeg  5.24185 -1.82274 -0.749152
RightLeg  -3.42815 -24.1866 2.03521
RightFoot  -0.63297 -0.217779 2.2772
RightToes  -3.13006e-008 1.75238e-005 3.56266e-009
Spine  -0.81769 -1.55442 -6.15085
Spine1  5.05622 -2.82572 6.74665
HEad  -16.7675 -5.82261 9.355
LeftShoulder1  2.70054 -6.32699 -21.0955
LeftArm  -39.982 -30.9416 -42.6141
LeftForeArm  69.731 -78.1481 -50.6951
LeftHand  -0.665461 -4.46287 8.12392
RightShoulder  3.06343 6.81968 23.5153
RightArm  -42.23 13.3846 33.6429
RightForeArm  129.546 78.8888 120.064
RightHand  -1.1515 7.73846 -10.496
LeftUpLeg  2.43823 1.48825 2.6746
LeftLeg  -0.329363 6.41571 -0.688837
LeftFoot  -1.89225 0.202449 -2.31273
LeftToes  4.78685e-008 1.46778e-008 1.34523e-009
161
root  -4.21317 40.923 0.366011 1.95565 -84.0978 -1.08936
RightUpLeg  5.31416 -1.99861 -1.14899
RightLeg  -3.34528 -22.9191 1.90962
RightFoot  -0.652974 -0.244457 2.56403
RightToes  -3.13006e-008 1.75238e-005 3.56266e-009
Spine  -1.79538 -1.5648 -5.78227
Spine1  4.61311 -2.83922 7.04634
HEad  -16.2577 -5.77 9.02063
LeftShoulder1  2.73946 -6.44964 -21.1527
LeftArm  -39.5484 -30.5696 -43.5588
LeftForeArm  75.6233 -79.1554 -59.3179
LeftHand  -0.748057 -4.14373 9.37305
RightShoulder  2.94073 6.48219 23.2783
RightArm  -43.4397 14.0456 33.861
RightForeArm  132.818 77.9623 126.116
RightHand  -1.31354 8.31561 -11.446
LeftUpLeg  2.9638 1.47584 2.38658
LeftLeg  -0.673112 7.53019 -0.879155
LeftFoot  -2.06365 0.189889 -2.18733
LeftToes  4.78685e-008 1.46778e-008 1.34523e-009
162
root  -4.35306 40.9228 0.511196 2.8296 -84.9137 -2.17165
RightUpLeg  5.78079 -2.11701 -1.34964
RightLeg  -3.52918 -22.0204 1.92591
RightFoot  -0.591227 -0.263874 2.7604
RightToes  -3.13006e-008 1.75238e-005 3.56266e-009
Spine  -2.37151 -1.79461 -5.64841
Spine1  4.05289 -3.16389 7.67322
HEad  -15.5326 -5.23637 9.17953
LeftShoulder1  2.89139 -6.84122 -21.6033
LeftArm  -38.1295 -28.1427 -43.9949
LeftForeArm  92.0013 -80.318 -78.6635
LeftHand  -0.786626 -3.87467 10.1174
RightShoulder  2.94831 6.45455 23.4451
RightArm  -43.4835 13.9369 34.7556
RightForeArm  136.987 76.4075 133.61
RightHand  -1.42187 8.96489 -11.8147
LeftUpLeg  3.60721 1.49931 2.23085
LeftLeg  -0.796442 8.35642 -0.91678
LeftFoot  -2.33289 0.168103 -1.95614
LeftToes  4.78685e-008 1.46778e-008 1.34523e-009
163
root  -4.47331 40.9112 0.657399 3.35024 -86.1834 -3.0239
RightUpLeg  6.09739 -2.21902 -1.63079
RightLeg  -3.26603 -20.668 1.63453
RightFoot  -0.687496 -0.288137 3.03738
RightToes  -3.13006e-008 1.75238e-005 3.56266e-009
Spine  -3.35322 -1.8612 -5.15575
Spine1  4.71212 -3.31329 7.86806
HEad  -15.4279 -4.50904 8.82208
LeftShoulder1  3.13489 -7.08742 -23.354
LeftArm  -34.2972 -25.1412 -42.5697
LeftForeArm  115.443 -79.9164 -106.472
LeftHand  -0.797401 -3.49533 10.6582
RightShoulder  2.96523 6.3535 23.9483
RightArm  -42.1943 13.4239 36.2154
RightForeArm  139.343 73.9833 141.283
RightHand  -1.48606 9.55352 -11.8701
LeftUpLeg  4.43943 1.56058 1.99534
LeftLeg  -0.970071 9.64694 -1.06618
LeftFoot  -2.58939 0.131714 -1.51552
LeftToes  4.78685e-008 1.46778e-008 1.34523e-009
164
root  -4.60511 40.8908 0.781767 5.35799 -87.2284 -5.40855
RightUpLeg  6.57431 -2.14299 -1.69541
RightLeg  -3.18349 -19.7222 1.31623
RightFoot  -0.855301 -0.304616 3.2615
RightToes  -3.13006e-008 1.75238e-005 3.56266e-009
Spine  -4.84409 -2.11708 -4.81909
Spine1  6.2684 -3.77746 8.35136
HEad  -15.2608 -3.27683 8.55084
LeftShoulder1  3.34704 -7.21275 -25.0776
LeftArm  -28.5111 -20.9816 -41.4471
LeftForeArm  133.691 -77.3809 -128.99
LeftHand  -0.837249 -3.99873 10.6034
RightShoulder  2.9889 6.29712 24.3835
RightArm  -39.0867 12.3722 38.7735
RightForeArm  140.011 70.8734 147.832
RightHand  -1.2923 9.78916 -10.2292
LeftUpLeg  5.17651 1.70388 1.89219
LeftLeg  -0.896001 10.5421 -1.16949
LeftFoot  -2.97212 0.0947673 -1.05296
LeftToes  4.78685e-008 1.46778e-008 1.34523e-009
165
root  -4.73932 40.8743 0.902045 14.7391 -88.2805 -15.3281
RightUpLeg  7.23959 -2.22375 -1.90753
RightLeg  -3.12904 -18.5538 1.12215
RightFoot  -0.998358 -0.323991 3.53699
RightToes  -3.13006e-008 1.75238e-005 3.56266e-009
Spine  -6.16015 -2.42733 -4.29448
Spine1  7.86064 -4.23223 8.31268
HEad  -14.5349 -2.04847 8.06581
LeftShoulder1  3.49939 -7.42014 -25.8948
LeftArm  -20.6585 -15.0684 -42.1157
LeftForeArm  145.116 -73.7977 -142.836
LeftHand  -0.871681 -4.48506 10.5263
RightShoulder  3.20291 6.60026 25.6446
RightArm  -33.6362 10.1364 41.1248
RightForeArm  140.873 67.5926 152.847
RightHand  -1.24443 10.0489 -9.71229
LeftUpLeg  6.16092 1.7402 1.67621
LeftLeg  -0.974191 11.5404 -1.1623
LeftFoot  -3.3113 0.0894809 -0.98898
LeftToes  4.78685e-008 1.46778e-008 1.34523e-009
166
root  -4.89077 40.8545 1.01372 16.1414 -89.65 -17.2575
RightUpLeg  7.7856 -2.26056 -2.06951
RightLeg  -2.8841 -17.1359 0.833572
RightFoot  -1.23268 -0.33973 3.76159
RightToes  -3.13006e-008 1.75238e-005 3.56266e-009
Spine  -8.71107 -2.6716 -4.13867
Spine1  11.2003 -4.88329 8.93313
HEad  -14.4005 -1.46895 7.46521
LeftShoulder1  3.88655 -8.07119 -27.5181
LeftArm  -11.8364 -9.08004 -42.7652
LeftForeArm  150.202 -71.0108 -149.166
LeftHand  -0.762025 -5.11662 8.69052
RightShoulder  3.54216 7.20017 27.0846
RightArm  -26.6674 7.7935 42.6661
RightForeArm  141.381 64.9998 155.874
RightHand  -1.28008 10.63 -9.63223
LeftUpLeg  7.3093 1.86182 1.52011
LeftLeg  -1.29366 12.8336 -1.27586
LeftFoot  -3.66108 0.0787209 -0.837487
LeftToes  4.78685e-008 1.46778e-008 1.34523e-009
